<?xml version="1.0" standalone="no"?>
<!DOCTYPE svg PUBLIC "-//W3C//DTD SVG 20010904//EN"
 "http://www.w3.org/TR/2001/REC-SVG-20010904/DTD/svg10.dtd">
<svg version="1.0" xmlns="http://www.w3.org/2000/svg"
 width="152.000000pt" height="50.000000pt" viewBox="0 0 152.000000 50.000000"
 preserveAspectRatio="xMidYMid meet">
<metadata>
Created by potrace 1.15, written by Peter Selinger 2001-2017
</metadata>
<g transform="translate(0.000000,50.000000) scale(0.100000,-0.100000)"
fill="#000000" stroke="none">
<path d="M713 488 c-6 -7 -15 -71 -22 -143 -13 -134 -15 -145 -33 -145 -7 0
-8 20 -4 61 6 47 4 66 -8 85 -15 22 -22 23 -100 23 l-84 0 -6 -31 c-3 -17 -6
-45 -6 -62 0 -46 -11 -76 -26 -76 -16 0 -17 10 -5 42 4 13 11 47 15 76 l7 53
-43 -3 c-41 -3 -43 -5 -51 -43 -4 -22 -11 -68 -14 -102 -5 -56 -3 -62 18 -76
16 -10 49 -16 96 -16 l72 0 6 57 c8 79 18 115 33 120 10 3 12 -14 10 -72 -4
-96 6 -105 109 -106 l71 0 5 47 c10 88 22 128 39 131 15 3 16 -5 11 -66 -5
-63 -4 -71 17 -92 18 -18 29 -21 58 -16 21 4 48 6 62 5 111 -8 131 -5 159 27
l28 31 25 -31 c23 -29 30 -31 87 -31 52 0 66 4 80 21 l17 22 10 -22 c6 -14 20
-22 42 -24 30 -3 32 -1 32 30 0 18 3 57 6 86 7 50 8 52 38 52 38 0 56 15 56
47 0 20 -5 23 -35 23 l-35 0 6 59 7 59 -32 7 c-49 10 -58 -5 -66 -105 -4 -50
-10 -90 -14 -90 -4 0 -12 13 -18 29 -8 22 -20 32 -51 40 -22 6 -48 8 -58 5
-57 -18 -73 -27 -77 -45 -5 -18 -8 -16 -37 12 -29 30 -34 31 -91 27 -50 -4
-65 -9 -86 -32 -14 -15 -29 -39 -33 -54 -7 -23 -8 -20 -9 20 -1 54 -17 68 -75
68 l-36 0 6 59 c6 55 5 58 -17 64 -35 10 -45 9 -56 -5z"/>
<path d="M6 333 c-3 -21 -6 -68 -6 -104 0 -82 18 -105 77 -95 21 4 45 6 53 6
8 -1 52 -3 96 -5 l82 -4 6 42 c3 23 9 77 12 120 l7 77 -33 0 c-42 0 -59 -23
-60 -77 0 -49 -15 -93 -31 -93 -7 0 -10 26 -8 83 l4 82 -42 3 -43 3 -1 -43
c-1 -77 -13 -122 -33 -126 -17 -4 -18 0 -11 39 20 117 17 129 -29 129 -31 0
-34 -3 -40 -37z"/>
<path d="M5 81 c-10 -9 -5 -71 6 -71 6 0 18 8 27 17 16 16 17 16 20 0 2 -9 10
-17 18 -17 10 0 12 5 8 13 -6 9 -5 9 7 1 8 -7 65 -13 137 -15 101 -3 124 -1
132 11 7 10 10 11 10 3 0 -8 15 -13 41 -13 l40 0 -3 37 c-3 42 -24 55 -36 22
-9 -22 -9 -22 -14 -1 -5 18 -10 20 -34 13 -21 -6 -29 -14 -28 -29 0 -12 -3
-22 -8 -22 -4 0 -8 11 -8 24 0 20 -6 25 -34 28 -43 5 -56 0 -57 -20 0 -13 -2
-13 -8 3 -7 18 -18 20 -110 21 -56 0 -104 -2 -106 -5z"/>
<path d="M600 48 l0 -36 68 0 c37 0 78 -3 91 -7 15 -5 29 -1 42 11 11 10 19
12 19 6 0 -7 15 -12 35 -12 20 0 35 5 35 12 0 6 6 4 13 -6 21 -28 61 -17 65
17 2 16 -2 35 -8 42 -12 14 -55 15 -77 2 -7 -4 -15 -3 -18 3 -5 8 -11 7 -21
-1 -8 -6 -14 -7 -14 -2 0 14 -83 9 -88 -6 -4 -11 -6 -11 -13 0 -5 9 -28 14
-69 14 l-60 0 0 -37z"/>
<path d="M996 83 c-3 -4 -6 -21 -6 -40 0 -27 4 -33 21 -33 11 0 17 5 14 10 -3
6 -1 10 4 10 6 0 11 -5 11 -10 0 -6 6 -10 13 -8 6 1 22 -2 35 -6 13 -4 28 -3
36 3 9 7 16 7 23 0 21 -21 57 -6 64 26 l7 30 1 -27 c1 -36 31 -39 31 -3 0 14
4 25 8 25 5 0 8 -10 8 -22 -1 -24 -6 -23 129 -31 28 -2 30 1 33 36 4 45 -8 52
-66 38 -23 -5 -42 -6 -42 -2 0 10 -169 10 -175 0 -3 -5 -15 -3 -25 4 -15 9
-24 9 -39 0 -14 -9 -21 -9 -30 0 -8 8 -11 7 -11 -6 0 -9 -5 -17 -11 -17 -5 0
-8 4 -5 9 7 10 -19 23 -28 14z"/>
</g>
</svg>
