<svg id="brand-staticman" viewBox="0 0 225.45 168.4" width="100%" height="100%">
			<title>Staticman</title>
			<path id="brand-staticman-body" d="M202.661,82.953V55.94c1.935,0,3.5-1.567,3.5-3.5c0-1.935-1.565-3.5-3.5-3.5v-7.505c0-2.505-0.236-4.955-0.664-7.339
			c-0.009-0.057-0.004-0.111-0.015-0.167c-0.043-0.237-0.096-0.474-0.144-0.708c-0.018-0.076-0.03-0.153-0.047-0.229
			c-1.631-7.871-5.485-15.043-11.203-20.791c-2.523-2.536-5.353-4.726-8.395-6.506c-0.312-0.186-0.634-0.343-0.949-0.52
			c-0.188-0.104-0.375-0.204-0.562-0.307c-0.479-0.254-0.955-0.504-1.441-0.739c-0.169-0.082-0.341-0.154-0.51-0.233
			c-0.82-0.383-1.652-0.738-2.496-1.066c-0.336-0.131-0.672-0.264-1.012-0.387c-0.385-0.137-0.771-0.268-1.157-0.394
			c-0.416-0.136-0.836-0.264-1.258-0.387c-0.341-0.099-0.683-0.201-1.024-0.291c-0.73-0.192-1.472-0.372-2.22-0.523
			c-0.233-0.05-0.47-0.082-0.705-0.126c-0.567-0.106-1.139-0.205-1.715-0.287c-0.333-0.048-0.667-0.088-1.002-0.128
			c-0.489-0.06-0.981-0.107-1.478-0.147c-0.348-0.029-0.692-0.06-1.041-0.08c-0.567-0.033-1.141-0.048-1.713-0.057
			C161.685,0.019,161.458,0,161.23,0c-0.198,0-0.394,0.02-0.59,0.021c-0.628,0.009-1.254,0.026-1.875,0.062
			c-0.371,0.022-0.739,0.055-1.106,0.085c-0.479,0.041-0.955,0.091-1.429,0.148c-0.386,0.046-0.772,0.09-1.157,0.146
			c-0.502,0.075-0.998,0.167-1.494,0.262c-0.713,0.132-1.418,0.283-2.119,0.454c-0.262,0.062-0.523,0.123-0.787,0.191
			c-0.549,0.146-1.094,0.299-1.635,0.465c-0.108,0.034-0.22,0.071-0.33,0.106c-9.912,3.126-18.383,9.91-23.619,19.259
			c-0.127,0.225-0.258,0.449-0.381,0.677c-0.107,0.205-0.23,0.4-0.338,0.608c-0.06,0.114-0.105,0.232-0.154,0.352
			c-2.821,5.598-4.426,11.911-4.426,18.597v7.505c-1.933,0-3.5,1.565-3.5,3.5c0,1.933,1.567,3.5,3.5,3.5v26.969
			c-9.459,0.94-18.581,4.091-26.554,9.212c-2.277,1.454-4.455,3.061-6.471,4.771c-0.031,0.024-0.062,0.053-0.092,0.081
			c-0.048,0.042-0.102,0.09-0.135,0.12c-0.706,0.666-1.371,1.266-2.04,1.835c-1.786,1.522-3.67,2.913-5.639,4.167
			c-0.035,0.028-0.058,0.067-0.098,0.093c-2.429,1.509-4.451,2.609-6.362,3.469c-1.494,0.675-3.031,1.212-4.646,1.717
			c-0.209,0.07-0.42,0.133-0.631,0.2c-0.169,0.052-0.344,0.104-0.515,0.155c-4.752,1.459-9.691,2.211-14.757,2.211
			c-13.082,0-25.259-4.957-34.417-13.548c4.265,1.501,8.787,2.298,13.387,2.298c10.164,0,19.912-3.873,27.303-10.63
			c1.345,6.435,4.178,12.481,8.253,17.65c1.846-0.558,3.56-1.136,5.202-1.878c0.544-0.245,1.105-0.519,1.677-0.81
			c-5.663-6.353-8.913-14.579-9.025-23.159c-0.02-1.509-1.004-2.835-2.442-3.291c-1.441-0.457-3.008,0.062-3.892,1.283
			C51.619,87.519,41.497,92.69,30.82,92.69c-9.389,0-18.403-3.989-24.731-10.945c-1.058-1.162-2.762-1.478-4.165-0.769
			c-1.404,0.708-2.163,2.265-1.857,3.807c0.035,0.174,0.076,0.349,0.119,0.524c0.002,0.011,0.001,0.021,0.004,0.03
			c8.308,35.907,35.138,65.679,70.019,77.69c7.912,2.728,16.178,4.53,24.569,5.354c0.114,0.014,0.228,0.019,0.342,0.019
			c0.865,0,1.704-0.32,2.351-0.906c0.732-0.664,1.149-1.604,1.149-2.594v-18.67c0-8.852,1.809-17.4,5.379-25.418
			c2.458-5.529,5.701-10.641,9.643-15.244l-3.829-2.268l4.589,1.38c0.002-0.004,0.004-0.007,0.007-0.01l23.528,6.72
			c1.231,0.574,2.504,1.092,3.793,1.572v-7.526c-5.915-2.615-11.06-6.43-14.94-11.22v-0.949V86.16V55.94h1.393v9.5
			c0,6.893,5.605,12.5,12.5,12.5h5c6.484,0,11.832-4.967,12.438-11.298c0.034-0.198,0.062-0.4,0.062-0.608
			c0-1.682,1.365-3.05,3.05-3.05c1.683,0,3.05,1.368,3.05,3.05c0,0.205,0.026,0.403,0.061,0.599
			c0.604,6.335,5.951,11.309,12.439,11.309h5c6.893,0,12.5-5.607,12.5-12.5v-9.5h1.381V86.13v7.144v0.955
			c-3.881,4.782-9.021,8.594-14.931,11.207v7.527c1.286-0.479,2.554-0.996,3.784-1.568l23.533-6.722
			c0.018,0.019,0.029,0.035,0.048,0.055l4.737-1.426l-3.953,2.342c3.436,4.021,6.344,8.437,8.654,13.173
			c0.588,1.207,1.812,1.965,3.146,1.965c0.067,0,0.14-0.002,0.211-0.006c1.409-0.085,2.632-1.01,3.096-2.346
			c0.974-2.797,1.466-5.748,1.466-8.778C225.45,96.106,215.682,84.974,202.661,82.953 M164.23,55.44h-6v-2h6V55.44z M195.661,48.94
			h-1.381h-3.619h-19.594c-0.432-1.442-1.754-2.5-3.337-2.5h-13c-1.583,0-2.905,1.058-3.337,2.5H131.79h-3.607h-1.393v-7.505
			c0-3.739,0.608-7.338,1.717-10.712c1.104,1.047,2.287,1.989,3.553,2.813c0.363,0.195,1.137,0.591,2.275,1.091
			c1.623,0.722,4.039,1.528,7.017,1.977c1.485,0.222,3.11,0.344,4.829,0.354c0.42-0.012,0.885,0.004,1.281-0.032
			c0.451-0.027,0.906-0.058,1.365-0.088c0.938-0.033,1.816-0.185,2.74-0.287c0.917-0.098,1.859-0.326,2.807-0.486
			c0.943-0.2,1.89-0.461,2.852-0.675c0.943-0.281,1.902-0.552,2.854-0.854c0.941-0.341,1.897-0.646,2.832-1.017
			c1.879-0.716,3.731-1.51,5.522-2.366c0.89-0.442,1.771-0.88,2.644-1.314c0.86-0.46,1.709-0.914,2.545-1.359
			c1.643-0.952,3.236-1.859,4.709-2.793c0.752-0.445,1.451-0.927,2.142-1.372c0.687-0.452,1.364-0.863,1.987-1.307
			c1.244-0.881,2.424-1.639,3.424-2.376c1.01-0.729,1.904-1.344,2.605-1.896c1.426-1.078,2.262-1.676,2.262-1.676
			s-0.717,0.729-2.012,1.974c-0.64,0.63-1.464,1.341-2.391,2.182c-0.918,0.854-2.016,1.743-3.208,2.72
			c-0.847,0.666-1.767,1.373-2.728,2.081c3.399,6.8,8.896,11.218,15.072,11.977c0.113,1.133,0.174,2.282,0.174,3.444v7.505
			L195.661,48.94L195.661,48.94z M177.247,99.039c-0.931-0.654-2.121-0.815-3.191-0.435l-12.823,4.58l-12.821-4.58
			c-1.072-0.382-2.265-0.222-3.193,0.435c-0.932,0.656-1.483,1.725-1.483,2.861v19c0,1.138,0.554,2.205,1.483,2.859
			c0.599,0.424,1.305,0.641,2.017,0.641c0.396,0,0.794-0.067,1.177-0.204l12.823-4.579l12.823,4.579
			c0.383,0.137,0.779,0.204,1.177,0.204c0.712,0,1.418-0.217,2.017-0.641c0.933-0.654,1.483-1.724,1.483-2.859v-19
			C178.73,100.762,178.178,99.695,177.247,99.039"></path>
			<path id="brand-staticman-eyes-background" d="M151.181,65.44c0,3.033-2.47,5.5-5.5,5.5h-5c-3.033,0-5.5-2.467-5.5-5.5v-9.5h16
			V65.44z M187.28,65.44c0,3.033-2.467,5.5-5.5,5.5h-5c-3.033,0-5.5-2.467-5.5-5.5v-9.5h16V65.44z"></path>
			<path id="brand-staticman-eyes" d="M175.28,61.44c0-2.205,1.795-4,4-4c0.09,0,0.176,0.021,0.264,0.026c-0.162,0.289-0.264,0.618-0.264,0.974
			c0,1.103,0.896,2,2,2c0.639,0,1.201-0.306,1.567-0.772c0.269,0.536,0.433,1.133,0.433,1.772c0,2.206-1.795,4-4,4
			S175.28,63.646,175.28,61.44 M139.181,61.44c0-2.205,1.794-4,4-4c0.09,0,0.175,0.021,0.263,0.026
			c-0.162,0.289-0.263,0.618-0.263,0.974c0,1.103,0.896,2,2,2c0.638,0,1.198-0.306,1.565-0.772c0.27,0.536,0.435,1.133,0.435,1.772
			c0,2.206-1.795,4-4,4C140.975,65.44,139.181,63.646,139.181,61.44"></path>
			<path id="brand-staticman-bow" d="M157.73,113.434l-7,2.5v-9.067l7,2.5V113.434z M171.73,115.934l-7-2.5v-4.067l7-2.5V115.934z"></path>
		</svg>