<svg xmlns="http://www.w3.org/2000/svg" xmlns:xlink="https://www.w3.org/2000/svgwww.w3.org/1999/xlink" width="240" height="144">
  <defs>
    <path id="kog" d="M103 69.3c3.5-2.2 7.4-3.7 11.6-4.4v-.6l.3-6.5a6.5 6.5 0 1 1 13 .5l-.3 6.4v.7c4.1 1 8 2.8 11.3 5.1l.4-.4 4.8-4.5a6.5 6.5 0 0 1 8.9 9.6l-4.8 4.4-.5.4c2.2 3.5 3.7 7.4 4.4 11.6h.6l6.5.3a6.5 6.5 0 1 1-.5 13l-6.4-.3h-.7c-1 4.1-2.8 8-5.1 11.3l.4.4 4.5 4.8a6.5 6.5 0 0 1-9.6 8.9l-4.4-4.8-.4-.5a32.3 32.3 0 0 1-11.6 4.4v.6l-.3 6.5a6.5 6.5 0 1 1-13-.5l.3-6.4v-.7c-4.1-1-8-2.8-11.3-5.1l-.4.4-4.8 4.5a6.5 6.5 0 0 1-8.9-9.6l4.8-4.4.5-.4a32.3 32.3 0 0 1-4.4-11.6h-.6l-6.5-.3a6.5 6.5 0 1 1 .5-13l6.4.3h.7c1-4.1 2.8-8 5.1-11.3l-.4-.4-4.5-4.8a6.5 6.5 0 1 1 9.6-8.9l4.4 4.8.4.5zm16.5 40.7a13 13 0 1 0 1-26 13 13 0 0 0-1 26z"/>
  </defs>
  <g fill="none" fill-rule="evenodd">
    <path fill="#E9EBEB" fill-rule="nonzero" d="M171.7 5c9.2 0 19.2.4 26.3 6.3 7.7 6.6 9.5 17.8 9.6 28 .2 10-.7 20.7 3.7 30 6.6 14 24 21.6 27.5 36.7 2.5 10.4-2.9 21.7-11.4 28.2s-19.6 9-30.3 9.2c-42.7.8-82.2-29.8-124.6-25.3-19.6 2-40.8 11.1-57.6 1C1.7 111-3 93 1.9 78.3 10.2 53.3 43.5 35 66.2 25 99.2 10.3 135.9 5.4 171.7 5"/>
    <use xlink:href="#kog" fill="#0E1E25"/>
    <use xlink:href="#kog" fill="#2D3B41" transform="scale(.98) rotate(25) translate(65, -134)"/>
    <use xlink:href="#kog" fill="#7E868A" transform="scale(.86) translate(-5, -62) rotate(25)" />
  </g>
</svg>
