<svg enable-background="new 0 0 30 30" viewBox="0 0 30 30" xmlns="http://www.w3.org/2000/svg"><path d="m13 1.5c1.3-.6 2.7-.6 4 0l8.7 5c1.2.8 1.9 2 2 3.5v10c-.1 1.4-.8 2.7-2 3.5l-8.7 5c-1.3.6-2.7.6-4 0l-8.7-5c-1.2-.8-1.9-2-2-3.5v-10c.1-1.4.8-2.7 2-3.4z" fill="#fff"/><path d="m23.6 16.5-.3-.3-.9-.9-7-7c-.2-.2-.4-.3-.7-.3h-2.8c-.4 0-.8.1-1.1.3l-3.2 2.3c-.2.1-.4.2-.6.2l-4.5.1v8h7.1c.2 0 .4.1.5.2l.5.5v.1l2.1 2.1 1.8 1.8c.6.5 1.4.5 2 0 .5-.5.5-1.2.1-1.8l.6.6c.6.5 1.4.5 2 0 .5-.6.5-1.4 0-2l-.5-.5 1 1c.6.5 1.4.5 2 0 .5-.6.5-1.4 0-2l-.7-.9.5.5c.6.5 1.5.3 2-.3.4-.5.4-1.2.1-1.7z" fill="#f38f48"/><path d="m15.4 24.3c-.4 0-.8-.2-1.2-.4l-.1-.1-4-4-.1-.1-.4-.4c-.1-.1-.2-.1-.2-.1h-7.1c-.2-.1-.3-.2-.3-.4v-8c0-.2.2-.4.4-.4l4.5-.1c.1 0 .3 0 .4-.1l3.2-2.2c.4-.3.9-.4 1.4-.4h2.8c.4 0 .7.2 1 .4l6.9 6.9.9.9.1.1.3.3c.7.7.7 1.8 0 2.5-.3.3-.8.5-1.3.5.2.6 0 1.3-.5 1.8s-1.3.7-2 .4c0 .4-.2.8-.5 1.1-.6.6-1.6.7-2.4.2-.1.4-.2.7-.5 1-.3.4-.8.6-1.3.6zm-.8-1c.4.4 1 .5 1.5.2.4-.3.5-1 .2-1.4-.1-.2-.1-.4.1-.5s.4-.1.5 0l.6.6c.4.4 1.1.4 1.5 0s.4-1.1 0-1.5l-.5-.5c-.1-.2-.1-.4.1-.5.1-.1.3-.1.4 0l1 1c.4.4 1.1.4 1.5 0s.4-1.1 0-1.5l-.8-.8c-.1-.2-.1-.4.1-.5.1-.1.3-.1.4 0l.5.5c.4.4 1.1.4 1.5 0s.4-1.1 0-1.5l-.2-.5-.1-.1-.8-.8-7-7c-.1-.1-.3-.2-.5-.2h-2.9c-.3 0-.7.1-.9.3l-3.2 2.2c-.2.2-.5.2-.8.2l-4.1.1v7.3h6.7c.3 0 .6.1.8.4l.5.5.1.1z" fill="#9d470a"/><path d="m18.6 11.5 5 5c.5.6.5 1.4 0 2-.6.5-1.4.5-2 0l-3.6-3.5" fill="#f38f48"/><path d="m22.5 19.3c-.5 0-.9-.2-1.3-.5l-3.5-3.5c-.2-.1-.2-.4-.1-.5.1-.2.4-.2.5-.1 0 0 .1.1.1.1l3.5 3.5c.4.4 1.1.4 1.5 0s.4-1.1 0-1.5l-5-5c-.2-.1-.2-.4-.1-.5.1-.2.4-.2.5-.1 0 0 .1.1.1.1l5 5c.7.7.7 1.9 0 2.6-.2.2-.7.4-1.2.4z" fill="#9d470a"/><path d="m18 15 3.8 3.8c.5.6.5 1.4 0 2-.6.5-1.4.5-2 0l-3.8-3.8" fill="#f38f48"/><path d="m20.8 21.6c-.5 0-.9-.2-1.3-.5l-3.8-3.8c-.1-.1-.1-.4 0-.5s.4-.1.5 0l3.8 3.8c.4.4 1.1.4 1.5 0s.4-1.1 0-1.5l-3.8-3.8c-.2-.1-.2-.4-.1-.5.1-.2.4-.2.5-.1 0 0 .1.1.1.1l3.8 3.8c.7.7.7 1.9 0 2.6-.3.2-.7.4-1.2.4z" fill="#9d470a"/><path d="m16 17 3.3 3.3c.5.6.5 1.4 0 2-.6.5-1.4.5-2 0l-3.6-3.6" fill="#f38f48"/><path d="m18.3 23.1c-.5 0-.9-.2-1.3-.5l-3.6-3.6c-.1-.2-.1-.4.1-.5.1-.1.3-.1.4 0l3.6 3.6c.4.4 1.1.4 1.5 0s.4-1.1 0-1.5l-3.3-3.3c-.1-.1-.1-.4 0-.5s.4-.1.5 0l3.3 3.2c.7.7.7 1.9 0 2.6-.3.3-.8.5-1.2.5z" fill="#9d470a"/><path d="m13.7 18.7 2.8 2.8c.5.6.5 1.4 0 2-.6.5-1.4.5-2 0l-1.8-1.8-2.1-2.1" fill="#f38f48"/><path d="m15.4 24.3c-.5 0-.9-.2-1.3-.5l-3.9-3.9c-.1-.2-.1-.4.1-.5.1-.1.3-.1.4 0l3.9 3.9c.4.4 1.1.4 1.5 0s.4-1.1 0-1.5l-2.7-2.8c-.1-.1-.1-.4 0-.5s.4-.1.5 0l2.8 2.8c.7.7.7 1.8 0 2.5-.3.3-.8.5-1.3.5z" fill="#9d470a"/><path d="m19.9 8.4c-.4-.3-.9-.5-1.4-.5h-4.6c-.4 0-.8.1-1.1.4l-1.7 1.6c-.9.6-1.2 1.8-.6 2.8.6.9 1.8 1.2 2.8.6.2-.1.4-.3.5-.5l1.5-1.3c.2-.2.4-.2.6-.2h2.1c.3 0 .5.1.7.3l5 5.1c.3.4.4.8.4 1.3 0 0 0 .6.4.6h3.1v-8h-5.2c-.2 0-.5-.1-.6-.3z" fill="#fde9db"/><path d="m27.6 18.9h-3.1c-.2 0-.4-.1-.5-.2-.2-.2-.3-.5-.3-.8 0-.4-.1-.7-.3-1l-5-5.1c-.1-.1-.3-.2-.4-.2h-2c-.1 0-.3.1-.4.1l-1.5 1.4c-.9.9-2.4.8-3.3-.1-.4-.4-.6-1-.6-1.6s.3-1.3.7-1.7l1.7-1.6c.3-.4.8-.6 1.3-.5h4.6c.6 0 1.2.2 1.6.6l1.9 1.7c.1.1.2.2.4.2h5.2c.2 0 .4.2.4.4v8c0 .2-.2.4-.4.4zm-9.6-8c.4 0 .7.1 1 .4l5 5.1c.4.4.6 1 .5 1.5v.2h2.7v-7.3h-4.8c-.4 0-.7-.2-.9-.4l-2-1.7c-.3-.3-.7-.4-1.1-.4h-4.6c-.3 0-.6.1-.8.3l-1.7 1.6c-.7.6-.7 1.6-.1 2.2.3.3.7.5 1.2.5.4 0 .8-.2 1.1-.4l1.5-1.3c.2-.2.6-.3.9-.3z" fill="#9d470a"/><path d="m5.2 19.3c-.5-.5-.6-1.3-.1-1.8l1.9-2c.5-.6 1.4-.6 2-.1.5.5.5 1.3 0 1.9l-1.9 2c-.5.4-1.4.5-1.9 0z" fill="#fff"/><path d="m6.1 20c-.4 0-.9-.2-1.2-.5-.7-.6-.8-1.7-.1-2.4l1.9-2c.6-.7 1.7-.8 2.4-.1.7.6.8 1.7.1 2.4l-1.9 2c-.2.4-.7.6-1.2.6zm1.9-4.7c-.3 0-.5.1-.7.3l-1.9 2c-.2.2-.3.4-.3.7s.1.5.3.7c.4.4 1 .4 1.4 0l1.9-2c.4-.4.3-1 0-1.3-.2-.2-.4-.4-.7-.4z" fill="#9d470a"/><path d="m14.8 21.7c.1.4 0 .7-.3 1l-1.7 1.8c-.4.4-1.1.4-1.5 0l-.1-.1c-.4-.3-.5-1-.2-1.4 0 0 0 0 .1-.1l1.7-1.8c.4-.4 1.1-.4 1.5 0l.1.1c.2.1.3.3.4.5" fill="#fff"/><path d="m12.1 25.1c-.4 0-.7-.1-1-.4l-.1-.1c-.3-.3-.5-.6-.5-1s.1-.7.4-1l1.7-1.8c.6-.5 1.4-.5 2 0 .3.2.5.5.6.9.1.5 0 1-.4 1.3l-1.6 1.7c-.3.3-.7.4-1.1.4zm1.5-4c-.2 0-.3.1-.5.2l-1.7 1.8c-.1.1-.2.3-.2.5s.1.4.2.5l.1.1c.3.3.7.3 1 0l1.7-1.8c.2-.2.2-.4.2-.6s-.1-.3-.2-.4c-.2-.2-.4-.3-.6-.3z" fill="#9d470a"/><path d="m7.2 21.2c-.5-.5-.6-1.3-.1-1.8l1.9-2c.5-.5 1.4-.6 1.9-.1s.5 1.3.1 1.8l-1.9 2c-.5.4-1.4.5-1.9.1z" fill="#fff"/><path d="m8.1 21.9c-.4 0-.9-.2-1.2-.5-.7-.6-.8-1.7-.2-2.4 0 0 0 0 .1-.1l1.9-2c.7-.7 1.7-.7 2.5-.1.7.6.8 1.7.1 2.4l-1.9 2c-.4.5-.8.7-1.3.7zm-.7-1c.4.4 1 .3 1.4-.1l1.9-2c.4-.4.3-1 0-1.3-.4-.4-1-.3-1.4.1l-1.9 2c-.4.3-.4.9 0 1.3z" fill="#9d470a"/><path d="m13.4 19.7c.1.4-.1.8-.4 1.1l-2 2.2c-.5.5-1.3.5-1.8.1l-.1-.1c-.5-.4-.6-1.2-.1-1.7 0 0 0 0 .1-.1l2.1-2.2c.5-.5 1.3-.5 1.8-.1l.1.1c.1.2.2.4.3.7" fill="#fff"/><path d="m10.1 23.8c-.4 0-.8-.2-1.1-.4l-.1-.1c-.7-.6-.7-1.6-.1-2.2l2.1-2.2c.6-.6 1.6-.7 2.3-.1l.1.1c.3.2.5.6.5.9.1.5-.1 1.1-.4 1.5l-2 2.1c-.4.2-.9.4-1.3.4zm1.9-4.8c-.2 0-.5.1-.7.3l-2.1 2.1c-.3.3-.3.9 0 1.2l.1.1c.4.3.9.3 1.3 0l2-2.1c.2-.2.3-.5.2-.8 0-.2-.1-.4-.3-.5l-.1-.1c0-.1-.2-.2-.4-.2z" fill="#9d470a"/><path d="m15 29.5c-.8 0-1.5-.1-2.2-.5l-8.7-5c-1.4-.9-2.2-2.4-2.2-4v-10c.1-1.6.9-3.1 2.2-3.9l8.7-5c1.4-.7 3.1-.7 4.5 0l8.7 5c1.3.9 2.2 2.3 2.2 3.9v10c-.1 1.6-.9 3-2.2 3.9l-8.7 5c-.7.4-1.5.6-2.3.6zm-1.7-27.6-8.7 5c-1 .7-1.7 1.8-1.7 3v10.1c.1 1.2.7 2.3 1.7 3l8.7 5c1.1.5 2.4.5 3.5 0l8.7-5c1-.7 1.7-1.8 1.7-3v-10c-.1-1.2-.7-2.3-1.7-3l-8.7-5c-1.1-.5-2.3-.7-3.4-.2z" fill="#ef6c0f"/></svg>