<svg id="Layer_1" xmlns="https://www.w3.org/2000/svg" viewBox="-262 346 87 102" enable-background="new -262 346 87 102"><style>.l-slackjs-0{fill:#29C797;} .l-slackjs-1{filter:url(#Adobe_OpacityMaskFilter);} .l-slackjs-2{fill:#FFFFFF;} .l-slackjs-3{mask:url(#mask-2);} .l-slackjs-4{opacity:0.4995;fill:#369679;enable-background:new ;} .l-slackjs-5{opacity:0.5;fill:#369679;enable-background:new ;} .l-slackjs-6{opacity:0.36;fill:#359679;enable-background:new ;} .l-slackjs-7{opacity:0.4485;fill:#369679;enable-background:new ;}</style><title>slack js</title><g id="Page-1"><g id="slack-js"><g id="Group-_x2B_-slack-JS"><g id="Group" transform="translate(1 1)"><g id="Mask"><path id="path-1_1_" class="l-slackjs-0" d="M-262 371.4h85v49.3h-85v-49.3zm42.5-25.4l42.5 25.4h-85l42.5-25.4zm-42.5 74.6h85l-42.5 25.4-42.5-25.4z"></path></g><defs><filter id="Adobe_OpacityMaskFilter" filterUnits="userSpaceOnUse" x="-278.6" y="338.2" width="116.8" height="116"><feColorMatrix values="1 0 0 0 0 0 1 0 0 0 0 0 1 0 0 0 0 0 1 0"></feColorMatrix></filter></defs><mask maskUnits="userSpaceOnUse" x="-278.6" y="338.2" width="116.8" height="116" id="mask-2"><g class="l-slackjs-1"><path id="path-1" class="l-slackjs-2" d="M-262 371.4h85v49.3h-85v-49.3zm42.5-25.4l42.5 25.4h-85l42.5-25.4zm-42.5 74.6h85l-42.5 25.4-42.5-25.4z"></path></g></mask><g class="l-slackjs-3"><path id="Fill-5" class="l-slackjs-4" d="M-165.076 389.045c4.244-4.073 4.356-10.915.284-15.16-4.073-4.243-10.915-4.355-15.16-.283l-64.703 62.378c-3.93 4.03-4.038 10.425-.323 14.62 3.937 4.423 10.91 4.805 15.154.732.18-.088 64.748-62.287 64.748-62.287"></path><path id="Fill-11" class="l-slackjs-5" d="M-196.027 357.522c4.244-4.072 4.356-10.914.284-15.158-4.073-4.244-10.915-4.357-15.16-.284l-64.703 62.377c-3.93 4.032-4.038 10.426-.323 14.622 3.938 4.42 10.91 4.802 15.155.73.314-.042 64.748-62.288 64.748-62.288"></path><path id="Fill-11_1_" class="l-slackjs-6" d="M-165.795 421.104c4.244-4.072 4.357-10.914.284-15.158l-62.38-64.704c-4.03-3.93-10.424-4.04-14.62-.323-4.422 3.935-4.803 10.91-.73 15.153.177.136 62.377 64.704 62.377 64.704 4.116 4.334 10.868 4.49 15.068.327z"></path><path id="Fill-5_1_" class="l-slackjs-7" d="M-211.56 449.544c4.074 4.244 10.915 4.357 15.16.284 4.243-4.073 4.356-10.914.283-15.16l-62.377-64.703c-4.03-3.93-10.426-4.038-14.622-.323-4.42 3.937-4.803 10.91-.73 15.154.087.18 62.287 64.748 62.287 64.748"></path></g></g><path id="slack-JS" class="l-slackjs-2" d="M-242.2 394.2c-.1.1-.1.2-.2.2s-.2.1-.3.1c-.1 0-.2 0-.4-.1-.1-.1-.3-.1-.4-.2-.2-.1-.3-.1-.5-.2s-.4-.1-.7-.1c-.4 0-.7.1-1 .3-.2.2-.3.4-.3.7 0 .2.1.4.2.5.1.1.3.2.5.3s.5.2.7.3c.3.1.5.2.8.3.3.1.6.2.8.4.3.1.5.3.7.5s.4.4.5.7c.1.3.2.6.2 1 0 .5-.1.9-.3 1.3s-.4.7-.7 1-.7.5-1.2.7c-.5.2-1 .2-1.7.2-.3 0-.6 0-1-.1-.3-.1-.6-.1-.9-.3-.3-.1-.6-.2-.8-.4-.3-.1-.5-.3-.7-.5l.6-1 .3-.3c.1-.1.2-.1.4-.1s.3 0 .4.1c.1.1.3.2.4.3.2.1.3.2.6.3.2.1.5.1.8.1.2 0 .5 0 .6-.1.2-.1.3-.1.4-.2s.2-.2.2-.3c.1-.1.1-.3.1-.4 0-.2-.1-.4-.2-.5-.1-.1-.3-.3-.5-.4-.2-.1-.5-.2-.7-.3-.3-.1-.6-.2-.8-.3-.3-.1-.6-.2-.8-.4-.3-.1-.5-.3-.7-.5-.2-.2-.4-.5-.5-.8-.1-.3-.2-.7-.2-1.1 0-.4.1-.8.2-1.2.2-.4.4-.7.7-1s.7-.5 1.1-.7 1-.2 1.6-.2c.7 0 1.3.1 1.8.3.5.2 1 .5 1.4.9l-.5 1.2zm4.8-6.4V402h-2.5v-14.1h2.5zm7.1 10.1c-.6 0-1.1.1-1.5.2-.4.1-.7.2-1 .3-.2.1-.4.3-.5.4-.1.2-.2.3-.2.5 0 .4.1.6.3.8.2.2.5.2.9.2s.8-.1 1.1-.2c.3-.2.6-.4.9-.7v-1.5zm-5.2-4.4c.6-.5 1.2-.9 1.8-1.2.7-.3 1.4-.4 2.2-.4.6 0 1.1.1 1.5.3.4.2.8.5 1.1.8s.5.7.7 1.2c.2.5.2 1 .2 1.5v6.1h-1.2c-.2 0-.4 0-.5-.1-.1-.1-.2-.2-.3-.4l-.2-.6c-.2.2-.5.4-.7.6-.2.2-.5.3-.7.4s-.5.2-.8.3c-.3.1-.6.1-.9.1-.4 0-.8-.1-1.1-.2-.3-.1-.6-.3-.9-.5-.2-.2-.4-.5-.6-.8-.1-.3-.2-.7-.2-1.2 0-.4.1-.7.3-1.1.2-.4.5-.7.9-1 .4-.3 1-.5 1.7-.7.7-.2 1.6-.3 2.7-.3v-.5c0-.6-.1-1.1-.4-1.4-.3-.3-.6-.4-1.1-.4-.3 0-.6 0-.9.1l-.6.3c-.2.1-.3.2-.5.3-.2.1-.3.1-.5.1s-.3 0-.4-.1l-.3-.3-.3-.9zm16.5.9c-.1.1-.1.2-.2.2s-.2.1-.3.1c-.1 0-.2 0-.4-.1-.1-.1-.2-.2-.4-.2-.1-.1-.3-.2-.5-.2-.2-.1-.5-.1-.8-.1-.4 0-.7.1-1 .2-.3.1-.5.3-.7.6-.2.3-.3.6-.4 1-.1.4-.1.8-.1 1.3 0 1 .2 1.8.6 2.3.4.5.9.8 1.6.8.2 0 .4 0 .6-.1.2 0 .3-.1.4-.2.1-.1.2-.1.3-.2s.2-.1.3-.2c.1-.1.2-.1.2-.2s.2-.1.3-.1c.2 0 .3.1.5.2l.7.9c-.3.3-.6.6-.9.8-.3.2-.6.4-.9.5-.3.1-.7.2-1 .3-.3 0-.7.1-1 .1-.6 0-1.1-.1-1.6-.3-.5-.2-1-.6-1.4-1-.4-.4-.7-1-.9-1.6-.2-.6-.3-1.3-.3-2.1 0-.7.1-1.4.3-2s.5-1.1.9-1.6c.4-.4.9-.8 1.5-1.1.6-.3 1.2-.4 2-.4.7 0 1.4.1 1.9.4.5.2 1 .6 1.5 1l-.8 1zm4.5-6.6v8h.4c.2 0 .3 0 .4-.1s.2-.1.3-.3l2.1-2.9c.1-.1.2-.3.4-.3s.3-.1.5-.1h2.3l-2.7 3.6c-.2.3-.5.5-.7.7.1.1.3.2.4.4s.2.3.3.4l2.9 4.7h-2.3c-.2 0-.4 0-.5-.1s-.3-.2-.3-.4l-2.1-3.6c-.1-.2-.2-.2-.3-.3-.1 0-.2-.1-.4-.1h-.5v4.4h-2.5v-14.1h2.3zm16.9 9.2c0 .8-.1 1.5-.3 2.1s-.5 1.2-.8 1.6c-.4.4-.8.8-1.4 1s-1.2.4-1.9.4c-.3 0-.7 0-1-.1-.3 0-.7-.1-1-.2 0-.3 0-.6.1-.8 0-.3 0-.6.1-.8 0-.2.1-.3.2-.4.1-.1.2-.1.4-.1.1 0 .2 0 .4.1s.4.1.6.1c.3 0 .6 0 .9-.1.2-.1.4-.2.6-.5s.3-.5.4-.8.1-.8.1-1.3v-8.9h2.7v8.7zm9.9-6.2c-.1.1-.2.3-.3.3-.1.1-.2.1-.3.1-.1 0-.3 0-.4-.1-.2-.1-.3-.2-.5-.3-.2-.1-.4-.2-.7-.3-.3-.1-.6-.1-.9-.1-.6 0-1.1.1-1.4.4-.3.3-.5.7-.5 1.2 0 .3.1.6.3.8.2.2.4.4.7.5s.6.3 1 .4c.4.1.7.2 1.1.4.4.1.7.3 1.1.5.4.2.7.4 1 .7s.5.6.7 1c.2.4.3.9.3 1.5s-.1 1.2-.3 1.8c-.2.5-.5 1-.9 1.4s-.9.7-1.5 1c-.6.2-1.2.4-2 .4-.4 0-.8 0-1.3-.1-.4-.1-.8-.2-1.2-.4-.4-.2-.8-.3-1.1-.6s-.6-.5-.9-.7l.8-1.3.3-.3c.1-.1.2-.1.3-.1.2 0 .3.1.5.2s.4.3.6.4.5.3.8.4c.3.1.7.2 1.1.2.6 0 1.1-.2 1.5-.5.4-.3.5-.8.5-1.4 0-.3-.1-.6-.3-.8s-.4-.4-.7-.5-.6-.3-1-.4c-.4-.1-.7-.2-1.1-.3-.4-.1-.7-.3-1.1-.5-.4-.2-.7-.4-1-.7s-.5-.7-.7-1.1c-.2-.4-.3-1-.3-1.6 0-.5.1-1 .3-1.5.2-.5.5-.9.9-1.3s.8-.7 1.4-.9c.6-.2 1.2-.3 1.9-.3.8 0 1.5.1 2.2.4s1.3.6 1.7 1.1l-.6 1z"></path></g></g></g></svg>